<svg xmlns="http://www.w3.org/2000/svg" viewBox="0 0 389.82 280.25">
    <path d="M160.41 120.27a206.39 206.39 0 0 0-14.46-3.6q-25.12-6.37-40.71-10.5t-24.33-8.26q-8.8-4.12-11.82-9t-3-12.76c0-5.75 1.26-10.5 3.75-14.26a32.79 32.79 0 0 1 9.57-9.38 38.32 38.32 0 0 1 12.94-5.25 68.76 68.76 0 0 1 14.26-1.5 100.77 100.77 0 0 1 20.07 1.88 49.69 49.69 0 0 1 12.55 4.26L123.24.54q-6.93-.54-14.05-.55a137 137 0 0 0-36 4.88 100.78 100.78 0 0 0-32.28 15.01A80 80 0 0 0 17.83 45.2q-8.8 15.19-8.82 35.83 0 18.39 6.94 31.33a66.33 66.33 0 0 0 18.2 21.57A101 101 0 0 0 59.66 148a257.93 257.93 0 0 0 29.25 9.19q14.63 4.12 28.89 7.5a181.14 181.14 0 0 1 25.51 7.88q11.26 4.5 18.2 11.25t6.95 17.59q0 10.13-5.25 16.69a36.78 36.78 0 0 1-13.13 10.32 58.39 58.39 0 0 1-16.88 5.06 118.16 118.16 0 0 1-16.88 1.31 89.67 89.67 0 0 1-22.51-2.81 56.29 56.29 0 0 1-18.95-8.57 42.63 42.63 0 0 1-12.95-15.2q-4.86-9.39-4.88-22.89H.01q-.36 24.76 9 42.77a84.49 84.49 0 0 0 25.32 29.64 108.14 108.14 0 0 0 36.78 17.07 169.78 169.78 0 0 0 43 5.44q27.4 0 48.21-6.38t34.89-17.82a72.19 72.19 0 0 0 4.25-3.7zM227.32 280.24L136.65 0h63.19l62.41 197h.78L326.22 0h63.59l-93 280.25z"/>
</svg>
